<svg id="Layer_1" data-name="Layer 1" xmlns="http://www.w3.org/2000/svg" viewBox="0 0 1000 1000"><defs><style>.cls-1{fill:#b3e0dc;}</style></defs><title>Artboard 1</title><g id="Capa_1" data-name="Capa 1"><path class="cls-1" d="M853.56,146.51C759.37,52.11,633.79.07,500,.07s-259.33,52-353.52,146.44C52.11,240.7.07,366.28.07,500s52,259.34,146.44,353.53C240.91,948,366.49,1000,500,1000s259.34-52,353.53-146.44C948,759.16,1000,633.57,1000,500S948,240.7,853.56,146.51ZM500,967.74C242.2,967.74,32.32,757.87,32.32,500S242.2,32.32,500,32.32,967.74,242.2,967.74,500,757.87,967.74,500,967.74Z"/><path class="cls-1" d="M500,887.1C286.5,887.1,113,713.57,113,500a16.13,16.13,0,1,0-32.25,0c0,112,43.65,217.41,122.78,296.54S388,919.36,500,919.36a16.13,16.13,0,0,0,0-32.26Z"/><path class="cls-1" d="M500,113a386.88,386.88,0,0,1,251,92.25,16,16,0,0,0,10.54,3.87,16.13,16.13,0,0,0,10.54-28.38,419.4,419.4,0,0,0-271.81-100,16.24,16.24,0,0,0-16.13,16.12A16.06,16.06,0,0,0,500,113Z"/><path class="cls-1" d="M819.37,228.22a16.17,16.17,0,1,0-24.52,21.08,386.83,386.83,0,0,1,92.25,251,16.13,16.13,0,0,0,32.26,0A418.68,418.68,0,0,0,819.37,228.22Z"/><path class="cls-1" d="M500,161.35a16.13,16.13,0,1,0,0,32.25c169,0,306.43,137.41,306.43,306.43a16.13,16.13,0,1,0,32.26,0A338.45,338.45,0,0,0,500,161.35Z"/><path class="cls-1" d="M352.73,805.17a17.13,17.13,0,0,0,7.1,1.72,16.47,16.47,0,0,0,14.62-9,16.17,16.17,0,0,0-7.53-21.5C260.26,724.75,193.82,619,193.82,500.25a16.13,16.13,0,0,0-32.26,0A338.08,338.08,0,0,0,352.73,805.17Z"/><path class="cls-1" d="M500,806.46A307.78,307.78,0,0,1,424.34,797a16.09,16.09,0,0,0-8,31.18A342.83,342.83,0,0,0,500,838.51a16.25,16.25,0,0,0,16.13-16.13A16.06,16.06,0,0,0,500,806.46Z"/><path class="cls-1" d="M500,725.82a225.79,225.79,0,0,1-168.8-75.69,16.14,16.14,0,0,0-24.09,21.5A258.31,258.31,0,0,0,500,758.3a16.25,16.25,0,0,0,16.13-16.13A16.44,16.44,0,0,0,500,725.82Z"/><path class="cls-1" d="M283.06,623.47a13.86,13.86,0,0,0,7.09-1.72,16.1,16.1,0,0,0,7.32-21.51A223.27,223.27,0,0,1,274.24,500,16.13,16.13,0,1,0,242,500a256.15,256.15,0,0,0,26.66,114.4A16,16,0,0,0,283.06,623.47Z"/><path class="cls-1" d="M500,242a16.13,16.13,0,1,0,0,32.25c124.51,0,225.79,101.29,225.79,225.79a16.13,16.13,0,0,0,32.26,0C758.08,357.68,642.39,242,500,242Z"/><path class="cls-1" d="M500,457a43,43,0,1,0,43,43A43.13,43.13,0,0,0,500,457Zm0,53.75A10.75,10.75,0,1,1,510.78,500,10.65,10.65,0,0,1,500,510.78Z"/><path class="cls-1" d="M500,321.55c-98.49,0-178.48,80-178.48,178.48s80,178.49,178.48,178.49,178.49-80,178.49-178.49S598.52,321.55,500,321.55Zm0,324.71c-80.64,0-146.22-65.59-146.22-146.23S419.39,353.81,500,353.81,646.26,419.39,646.26,500,580.67,646.26,500,646.26Z"/></g></svg>