<svg id="Color" xmlns="http://www.w3.org/2000/svg" viewBox="0 0 115 115"><defs><style>.cls-1{fill:#006a5d;}.cls-2{fill:#009789;}.cls-3{fill:none;}</style></defs><title>logo_music</title><circle class="cls-1" cx="57.5" cy="57.5" r="8.63"/><path class="cls-1" d="M89.85,34.29v37c-.48,0-1-.05-1.45-.05a23.74,23.74,0,0,0-6.06.77,28.76,28.76,0,0,0-5.81-36l12.35-2.46.17,0a.83.83,0,0,1,.51.19A.8.8,0,0,1,89.85,34.29Z"/><path class="cls-1" d="M115,57.5a57.53,57.53,0,0,1-79.43,53.17,17.8,17.8,0,0,0,9.15-6.38,20.85,20.85,0,0,0,4.14-12.21V84.93a28.93,28.93,0,0,0,18.07-.26,10.87,10.87,0,0,0-.61,6,13,13,0,0,0,5.76,8.2,18.9,18.9,0,0,0,5.13,2.42,19.45,19.45,0,0,0,5.58.83,17,17,0,0,0,13.83-7,20.76,20.76,0,0,0,4.14-12.21V19.62A57.26,57.26,0,0,1,115,57.5Z"/><path class="cls-1" d="M82.78,5.84l-37.2,7.42A9.51,9.51,0,0,0,38,22.56V36.42a28.75,28.75,0,0,0,0,42.16v1.88c-.49,0-1,0-1.45,0A22.81,22.81,0,0,0,26,82.9a28.55,28.55,0,0,0-7.64,5.82,15.31,15.31,0,0,0-3.82,6.94A57.51,57.51,0,0,1,82.78,5.84Z"/><path class="cls-2" d="M97.31,10.2V82.82c-.11,7.69-5.09,14.24-11.84,15.58A15.7,15.7,0,0,1,74,96a9.59,9.59,0,0,1-4.31-6c-.55-3,.91-5.8,3-8.12a24.71,24.71,0,0,1,5.51-4.47c.43-.26.84-.49,1.22-.68a20,20,0,0,1,10.49-2,3.18,3.18,0,0,0,2.38-.85,3.14,3.14,0,0,0,1-2.31V34.29a4.24,4.24,0,0,0-5.09-4.18L72.83,33.17,49.09,37.91a4.58,4.58,0,0,0-3.68,4.49V92c-.12,7.69-5.1,14.24-11.85,15.58a14.51,14.51,0,0,1-3.91.21,16.07,16.07,0,0,1-7.54-2.61,9.53,9.53,0,0,1-4.3-6l0-.17c-1-5.92,5.94-11.15,9.75-13.1a19.66,19.66,0,0,1,9-2.1c.54,0,1,0,1.51,0a3.18,3.18,0,0,0,3.35-2.63,3,3,0,0,0,0-.52V22.56a6,6,0,0,1,4.86-5.92L87.48,8.42l6.16-1.23a3.07,3.07,0,0,1,3.67,3Z"/><path class="cls-3" d="M98.38,5.16a6.57,6.57,0,0,0-4.13-1.48A6.86,6.86,0,0,0,93,3.81L86.8,5l-4,.8-37.2,7.42A9.51,9.51,0,0,0,38,22.56v57.9c-.49,0-1,0-1.45,0A22.81,22.81,0,0,0,26,82.9a28.55,28.55,0,0,0-7.64,5.82,15.31,15.31,0,0,0-3.82,6.94,10.57,10.57,0,0,0-.12,4v.13a.69.69,0,0,0,0,.13,12.94,12.94,0,0,0,5.76,8.18,19.33,19.33,0,0,0,9.19,3.19c.5,0,1,.07,1.51.07a16.87,16.87,0,0,0,3.36-.33c.45-.09.89-.19,1.33-.32a17.8,17.8,0,0,0,9.15-6.38,20.85,20.85,0,0,0,4.14-12.21V42.4a1.14,1.14,0,0,1,.91-1.11l23.74-4.73,3-.61,12.35-2.46.17,0a.83.83,0,0,1,.51.19.8.8,0,0,1,.29.63v37c-.48,0-1-.05-1.45-.05a23.74,23.74,0,0,0-6.06.77,21.9,21.9,0,0,0-4.48,1.71c-.46.24-.94.5-1.42.79a28.25,28.25,0,0,0-6.31,5.13,16.53,16.53,0,0,0-3.2,5.06,10.87,10.87,0,0,0-.61,6,13,13,0,0,0,5.76,8.2,18.9,18.9,0,0,0,5.13,2.42,19.45,19.45,0,0,0,5.58.83,17,17,0,0,0,13.83-7,20.76,20.76,0,0,0,4.14-12.21V10.2A6.52,6.52,0,0,0,98.38,5.16ZM97.31,82.82c-.11,7.69-5.09,14.24-11.84,15.58a13.24,13.24,0,0,1-2.68.26,16.17,16.17,0,0,1-2.59-.22c-.29,0-.58-.1-.86-.17l-.57-.14c-.38-.1-.75-.21-1.12-.33l-.55-.2-.81-.34L75.77,97A13.79,13.79,0,0,1,74,96a9.59,9.59,0,0,1-4.31-6c-.55-3,.91-5.8,3-8.12a24.71,24.71,0,0,1,5.51-4.47c.43-.26.84-.49,1.22-.68a18.93,18.93,0,0,1,5-1.73l.56-.1c.47-.07.92-.13,1.36-.17l.77-.06c.43,0,.84,0,1.23,0s1,0,1.52.06h.22a3.55,3.55,0,0,0,.73-.08l.29-.08a3.43,3.43,0,0,0,.67-.32l.24-.17.23-.2a3.14,3.14,0,0,0,1-2.31V34.29A4.25,4.25,0,0,0,91.75,31l-.3-.22-.31-.2a4.43,4.43,0,0,0-.84-.36,4.05,4.05,0,0,0-.5-.12,4.76,4.76,0,0,0-.75-.07,4,4,0,0,0-.84.09L72.83,33.17,49.09,37.91a4.58,4.58,0,0,0-3.68,4.49V92c-.12,7.69-5.1,14.24-11.85,15.58a13.84,13.84,0,0,1-2.68.26c-.41,0-.82,0-1.23-.05a16.07,16.07,0,0,1-7.54-2.61,9.53,9.53,0,0,1-4.3-6l0-.17c-1-5.92,5.94-11.15,9.75-13.1a19.66,19.66,0,0,1,9-2.1c.54,0,1,0,1.51,0h.22a3.06,3.06,0,0,0,.74-.09l.28-.08a3.14,3.14,0,0,0,.67-.31l.25-.18.22-.19a3.14,3.14,0,0,0,1-1.79,3,3,0,0,0,0-.52V22.56a6,6,0,0,1,4.86-5.92L87.48,8.42l6.16-1.23a3.15,3.15,0,0,1,.61-.06,3.07,3.07,0,0,1,3.06,3.07Z"/></svg>