<svg id="White" xmlns="http://www.w3.org/2000/svg" viewBox="0 0 1000 1000"><defs><style>.cls-1{fill:#fff;}</style></defs><title>logo_music</title><circle class="cls-1" cx="500" cy="500" r="75"/><path class="cls-1" d="M788.27,281.09a22,22,0,0,0-18.3-4.58L650.48,300.34a250.06,250.06,0,0,1,52.74,345.3c30.49-11.24,59.38-12.32,79.7-10.89a12.49,12.49,0,0,0,13.42-12.46V298.14A22,22,0,0,0,788.27,281.09ZM760.67,73.25,402.24,144.71A52.62,52.62,0,0,0,360,196.19v96.65a250.2,250.2,0,0,1,273.31-4.37L767,261.8a37,37,0,0,1,44.3,36.34V622.29a27.5,27.5,0,0,1-29.47,27.42c-22.68-1.6-56.89.19-91.15,17.76-3.3,1.69-6.87,3.67-10.61,5.92a251.29,251.29,0,0,1-48,38.87c-18.09,20.17-30.78,44.68-26,70.65,3.61,19.54,16.9,38,37.43,51.88,28.61,19.4,66.77,27.4,99.57,20.89,58.69-11.68,102-68.64,103-135.48v-581A501.11,501.11,0,0,0,760.67,73.25Zm27.6,207.84a22,22,0,0,0-18.3-4.58L650.48,300.34a250.06,250.06,0,0,1,52.74,345.3c30.49-11.24,59.38-12.32,79.7-10.89a12.49,12.49,0,0,0,13.42-12.46V298.14A22,22,0,0,0,788.27,281.09ZM359.61,706.89a27.47,27.47,0,0,1-29.08,22.88c-4-.28-8.45-.46-13.15-.46-21.71,0-49.84,3.78-78,18.22-33.14,17-93,62.51-84.78,114a501.49,501.49,0,0,0,103.21,76,124,124,0,0,0,34.05-1.79c58.69-11.67,102-68.64,103-135.48V726.88A249.43,249.43,0,0,1,359.61,706.89ZM500,0C223.86,0,0,223.86,0,500A498.27,498.27,0,0,0,139.07,846c1.59-21,11.66-42.36,29.75-62.83,24.46-27.69,55-44.51,63.72-49,37.33-19.15,74.46-21.1,99-19.37A12.5,12.5,0,0,0,345,702.35v-6.19a250,250,0,0,1,0-392.32V196.19A67.69,67.69,0,0,1,399.3,130L741.07,61.86A497.62,497.62,0,0,0,500,0ZM359.61,706.89a27.47,27.47,0,0,1-29.08,22.88c-4-.28-8.45-.46-13.15-.46-21.71,0-49.84,3.78-78,18.22-33.14,17-93,62.51-84.78,114a501.49,501.49,0,0,0,103.21,76,124,124,0,0,0,34.05-1.79c58.69-11.67,102-68.64,103-135.48V726.88A249.43,249.43,0,0,1,359.61,706.89Zm428.66-425.8a22,22,0,0,0-18.3-4.58L650.48,300.34a250.06,250.06,0,0,1,52.74,345.3c30.49-11.24,59.38-12.32,79.7-10.89a12.49,12.49,0,0,0,13.42-12.46V298.14A22,22,0,0,0,788.27,281.09ZM359.61,706.89a27.47,27.47,0,0,1-29.08,22.88c-4-.28-8.45-.46-13.15-.46-21.71,0-49.84,3.78-78,18.22-33.14,17-93,62.51-84.78,114a501.49,501.49,0,0,0,103.21,76,124,124,0,0,0,34.05-1.79c58.69-11.67,102-68.64,103-135.48V726.88A249.43,249.43,0,0,1,359.61,706.89Zm428.66-425.8a22,22,0,0,0-18.3-4.58L650.48,300.34a250.06,250.06,0,0,1,52.74,345.3c30.49-11.24,59.38-12.32,79.7-10.89a12.49,12.49,0,0,0,13.42-12.46V298.14A22,22,0,0,0,788.27,281.09ZM760.67,73.25,402.24,144.71A52.62,52.62,0,0,0,360,196.19v96.65a250.2,250.2,0,0,1,273.31-4.37L767,261.8a37,37,0,0,1,44.3,36.34V622.29a27.5,27.5,0,0,1-29.47,27.42c-22.68-1.6-56.89.19-91.15,17.76-3.3,1.69-6.87,3.67-10.61,5.92a251.29,251.29,0,0,1-48,38.87c-18.09,20.17-30.78,44.68-26,70.65,3.61,19.54,16.9,38,37.43,51.88,28.61,19.4,66.77,27.4,99.57,20.89,58.69-11.68,102-68.64,103-135.48v-581A501.11,501.11,0,0,0,760.67,73.25ZM359.61,706.89a27.47,27.47,0,0,1-29.08,22.88c-4-.28-8.45-.46-13.15-.46-21.71,0-49.84,3.78-78,18.22-33.14,17-93,62.51-84.78,114a501.49,501.49,0,0,0,103.21,76,124,124,0,0,0,34.05-1.79c58.69-11.67,102-68.64,103-135.48V726.88A249.43,249.43,0,0,1,359.61,706.89Zm428.66-425.8a22,22,0,0,0-18.3-4.58L650.48,300.34a250.06,250.06,0,0,1,52.74,345.3c30.49-11.24,59.38-12.32,79.7-10.89a12.49,12.49,0,0,0,13.42-12.46V298.14A22,22,0,0,0,788.27,281.09Zm0,0a22,22,0,0,0-18.3-4.58L650.48,300.34a250.06,250.06,0,0,1,52.74,345.3c30.49-11.24,59.38-12.32,79.7-10.89a12.49,12.49,0,0,0,13.42-12.46V298.14A22,22,0,0,0,788.27,281.09Zm72.91-126.84V720.36c-1.07,73.89-49.46,137-115.06,150-36.59,7.27-79.09-1.61-110.91-23.19-23.87-16.18-39.41-38.05-43.76-61.56-3.48-18.77.23-38.26,10.79-57.43a250.82,250.82,0,0,1-192.4,5v67.18c-1.07,73.89-49.46,137-115.06,150-3,.59-6,1.07-9,1.45A498.1,498.1,0,0,0,500,1000c276.14,0,500-223.86,500-500A498.29,498.29,0,0,0,861.18,154.25ZM750,500a248.81,248.81,0,0,1-46.78,145.64c30.49-11.24,59.38-12.32,79.7-10.89a12.49,12.49,0,0,0,13.42-12.46V298.14A22.06,22.06,0,0,0,770,276.51L650.48,300.34A249.61,249.61,0,0,1,750,500Zm38.27-218.91a22,22,0,0,0-18.3-4.58L650.48,300.34a250.06,250.06,0,0,1,52.74,345.3c30.49-11.24,59.38-12.32,79.7-10.89a12.49,12.49,0,0,0,13.42-12.46V298.14A22,22,0,0,0,788.27,281.09ZM359.61,706.89a27.47,27.47,0,0,1-29.08,22.88c-4-.28-8.45-.46-13.15-.46-21.71,0-49.84,3.78-78,18.22-33.14,17-93,62.51-84.78,114a501.49,501.49,0,0,0,103.21,76,124,124,0,0,0,34.05-1.79c58.69-11.67,102-68.64,103-135.48V726.88A249.43,249.43,0,0,1,359.61,706.89Zm428.66-425.8a22,22,0,0,0-18.3-4.58L650.48,300.34a250.06,250.06,0,0,1,52.74,345.3c30.49-11.24,59.38-12.32,79.7-10.89a12.49,12.49,0,0,0,13.42-12.46V298.14A22,22,0,0,0,788.27,281.09ZM359.61,706.89a27.47,27.47,0,0,1-29.08,22.88c-4-.28-8.45-.46-13.15-.46-21.71,0-49.84,3.78-78,18.22-33.14,17-93,62.51-84.78,114a501.49,501.49,0,0,0,103.21,76,124,124,0,0,0,34.05-1.79c58.69-11.67,102-68.64,103-135.48V726.88A249.43,249.43,0,0,1,359.61,706.89Zm428.66-425.8a22,22,0,0,0-18.3-4.58L650.48,300.34a250.06,250.06,0,0,1,52.74,345.3c30.49-11.24,59.38-12.32,79.7-10.89a12.49,12.49,0,0,0,13.42-12.46V298.14A22,22,0,0,0,788.27,281.09Zm0,0a22,22,0,0,0-18.3-4.58L650.48,300.34a250.06,250.06,0,0,1,52.74,345.3c30.49-11.24,59.38-12.32,79.7-10.89a12.49,12.49,0,0,0,13.42-12.46V298.14A22,22,0,0,0,788.27,281.09Z"/><path class="cls-1" d="M846.18,88.73V720.2c-1,66.84-44.29,123.8-103,135.48-32.8,6.51-71-1.49-99.57-20.89-20.53-13.92-33.82-32.34-37.43-51.88-4.82-26,7.87-50.48,26-70.65,14.59-16.29,32.7-29.75,48-38.87,3.74-2.25,7.31-4.23,10.61-5.92,34.26-17.57,68.47-19.36,91.15-17.76a27.5,27.5,0,0,0,29.47-27.42V298.14A37,37,0,0,0,767,261.8L633.31,288.47,426.89,329.63a40,40,0,0,0-32.05,39.07V800.26c-1,66.84-44.29,123.81-103,135.48a124,124,0,0,1-34.05,1.79c-23.14-1.88-46.45-9.75-65.52-22.68-20.53-13.92-33.82-32.34-37.43-51.88-.09-.48-.17-1-.26-1.45-8.27-51.48,51.64-97,84.78-114,28.16-14.44,56.29-18.22,78-18.22,4.7,0,9.11.18,13.15.46a27.47,27.47,0,0,0,29.08-22.88,26.42,26.42,0,0,0,.39-4.54V196.19a52.62,52.62,0,0,1,42.24-51.48L760.67,73.25l53.61-10.69a26.67,26.67,0,0,1,31.9,26.17Z"/></svg>